<svg stroke-miterlimit="10" style="fill-rule:nonzero;clip-rule:evenodd;stroke-linecap:round;stroke-linejoin:round" viewBox="0 0 1710 600" xml:space="preserve" xmlns="http://www.w3.org/2000/svg" xmlns:vectornator="http://vectornator.io"><g vectornator:layerName="chainguard" fill-rule="evenodd"><path d="M775.5 128c4.25 0 8.5-4.25 8.5-8.5v-51c0-4.25-4.25-8.5-8.5-8.5h-187c-4.25 0-8.5 4.25-8.5 8.5v187c0 4.25 4.25 8.5 8.5 8.5h187c4.25 0 8.5-4.25 8.5-8.5v-51c0-4.25-4.25-8.5-8.5-8.5H665c-4.25 0-8.5-4.25-8.5-8.5v-51c0-4.25 4.25-8.5 8.5-8.5h110.5ZM940.4 60c-4.25 0-8.5 4.25-8.5 8.5v51c0 4.25-4.25 8.5-8.5 8.5h-34c-4.25 0-8.5-4.25-8.5-8.5v-51c0-4.25-4.25-8.5-8.5-8.5h-59.5c-4.25 0-8.5 4.25-8.5 8.5v187c0 4.25 4.25 8.5 8.5 8.5h59.5c4.25 0 8.5-4.25 8.5-8.5v-51c0-4.25 4.25-8.5 8.5-8.5h34c4.25 0 8.5 4.25 8.5 8.5v51c0 4.25 4.25 8.5 8.5 8.5h59.5c4.25 0 8.5-4.25 8.5-8.5v-187c0-4.25-4.25-8.5-8.5-8.5h-59.5ZM1113.8 162c-4.25 0-8.5-4.25-8.5-8.5v-34c0-4.25 4.25-8.5 8.5-8.5h34c4.25 0 8.5 4.25 8.5 8.5v34c0 4.25-4.25 8.5-8.5 8.5h-34Zm110.5-102h-187c-4.25 0-8.5 4.25-8.5 8.5v187c0 4.25 4.25 8.5 8.5 8.5h59.5c4.25 0 8.5-4.25 8.5-8.5v-34c0-4.25 4.25-8.5 8.5-8.5h34c4.25 0 8.5 4.25 8.5 8.5v34c0 4.25 4.25 8.5 8.5 8.5h59.5c4.25 0 8.5-4.25 8.5-8.5v-187c0-4.25-4.25-8.5-8.5-8.5ZM1457.2 221.5c0-4.25-4.25-8.5-8.5-8.5h-46.75c-4.25 0-8.5-4.25-8.5-8.5v-85c0-4.25 4.25-8.5 8.5-8.5h46.75c4.25 0 8.5-4.25 8.5-8.5v-34c0-4.25-4.25-8.5-8.5-8.5h-187c-4.25 0-8.5 4.25-8.5 8.5v34c0 4.25 4.25 8.5 8.5 8.5h46.75c4.25 0 8.5 4.25 8.5 8.5v85c0 4.25-4.25 8.5-8.5 8.5h-46.75c-4.25 0-8.5 4.25-8.5 8.5v34c0 4.25 4.25 8.5 8.5 8.5h187c4.25 0 8.5-4.25 8.5-8.5v-34ZM1613.6 60c-4.25 0-8.5 4.25-8.5 8.5V128c0 4.25-3.4 8.5-8.5 0l-34-59.5c-3.4-5.1-4.25-8.5-8.5-8.5h-68c-4.25 0-8.5 4.25-8.5 8.5v187c0 4.25 4.25 8.5 8.5 8.5h59.5c4.25 0 8.5-4.25 8.5-8.5V196c0-3.4 3.4-8.5 8.5 0l34 59.5c3.4 5.1 4.25 8.5 8.5 8.5h68c4.25 0 8.5-4.25 8.5-8.5v-187c0-4.25-4.25-8.5-8.5-8.5h-59.5Z" fill="#48a8e8"/><path d="M775.5 352.4c4.25 0 8.5-4.25 8.5-8.5v-51c0-4.25-4.25-8.5-8.5-8.5h-187c-4.25 0-8.5 4.25-8.5 8.5v187c0 4.25 4.25 8.5 8.5 8.5h187c4.25 0 8.5-4.25 8.5-8.5v-85c0-4.25-4.25-8.5-8.5-8.5H716c-4.25 0-8.5 4.25-8.5 8.5v17c0 4.25-4.25 8.5-8.5 8.5h-34c-4.25 0-8.5-4.25-8.5-8.5v-51c0-4.25 4.25-8.5 8.5-8.5h110.5ZM940.4 284.4c-4.25 0-8.5 4.25-8.5 8.5v119c0 4.25-4.25 8.5-8.5 8.5h-34c-4.25 0-8.5-4.25-8.5-8.5v-119c0-4.25-4.25-8.5-8.5-8.5h-59.5c-4.25 0-8.5 4.25-8.5 8.5v187c0 4.25 4.25 8.5 8.5 8.5h187c4.25 0 8.5-4.25 8.5-8.5v-187c0-4.25-4.25-8.5-8.5-8.5h-59.5ZM1113.8 386.4c-4.25 0-8.5-4.25-8.5-8.5v-34c0-4.25 4.25-8.5 8.5-8.5h34c4.25 0 8.5 4.25 8.5 8.5v34c0 4.25-4.25 8.5-8.5 8.5h-34Zm110.5-102h-187c-4.25 0-8.5 4.25-8.5 8.5v187c0 4.25 4.25 8.5 8.5 8.5h59.5c4.25 0 8.5-4.25 8.5-8.5v-34c0-4.25 4.25-8.5 8.5-8.5h34c4.25 0 8.5 4.25 8.5 8.5v34c0 4.25 4.25 8.5 8.5 8.5h59.5c4.25 0 8.5-4.25 8.5-8.5v-187c0-4.25-4.25-8.5-8.5-8.5ZM1338.2 386.4c-4.25 0-8.5-4.25-8.5-8.5v-34c0-4.25 4.25-8.5 8.5-8.5h34c4.25 0 8.5 4.25 8.5 8.5v34c0 4.25-4.25 8.5-8.5 8.5h-34Zm119-93.5c0-4.25-4.25-8.5-8.5-8.5h-187c-4.25 0-8.5 4.25-8.5 8.5v187c0 4.25 4.25 8.5 8.5 8.5h59.5c4.25 0 8.5-4.25 8.5-8.5v-34c0-4.25 3.4-8.5 8.5-8.5 8.5 0 25.5 51 37.4 51h59.5c8.5 0 11.9-1.7 8.5-8.5-8.5-17-24.65-39.1-17-42.5 24.23-13.6 30.6-35.7 30.6-51v-93.5ZM1605.1 411.9c0 4.25-4.25 8.5-8.5 8.5h-34c-4.25 0-8.5-4.25-8.5-8.5v-51c0-4.25 4.25-8.5 8.5-8.5h34c4.25 0 8.5 4.25 8.5 8.5v51Zm29.75-127.5H1486.1c-4.25 0-8.5 4.25-8.5 8.5v187c0 4.25 4.25 8.5 8.5 8.5h157.25c8.5 0 38.25-38.25 38.25-46.75v-119c0-8.5-38.25-38.25-46.75-38.25Z" fill="#3878c8"/></g><g vectornator:layerName="g829" fill-rule="evenodd"><path d="M300 580 100 440 50 100l130-70h120v550" fill="#48a8e8"/><path d="m300 580 200-140 50-340-130-70H300v550" fill="#3878c8"/></g><g vectornator:layerName="octo" fill-rule="evenodd"><path d="M492.2 321.477c-4.5-4.677-10.1-7.177-15.3-9.579-10.9-4.298-22.5-6.698-33.3-8.715-10.8-2.183-21.3-7.083-32.5-9.923-1.1-.36-2.2-.36-3.2-.665 3.5-9.795 8.4-19.595 10.5-30.09 2.8-12.205 2.8-24.805 1-37.129-1.3-12.176-4.5-24.476-9-35.911-8.8-23.165-22.5-44.565-40.6-61.725-18.2-17.14-42.4-29.04-68.3-29.308-24.8-.132-51.6 13.868-68.6 28.648-18.6 16.72-32.6 38.12-41.6 61.495-4.6 11.625-7.7 23.825-9.5 36.137-1 6.288-1.4 12.588-1.4 18.73 0 6.5 1 12.8 2.8 18.9 3.1 11.3 9.5 21.1 14.7 30.6-.7-.1-1.1.3-1.4.3-11.2 2.858-21.7 7.758-32.6 9.941-10.8 2.017-22.3 4.417-33.2 8.715-5.3 2.402-10.9 4.902-15.4 9.59-2.1 2.3-3.8 5.8-4.2 9.5 0 3.6 1.4 7.1 3.5 9.8 4.2 5.4 9.8 8.2 15.4 10.2 5.6 1.8 11.6 2.8 17.5 3.3 6.3.3 12.6.3 19.3-.5-3.2 4-6.3 8.2-8.4 13.3-2.4 5.3-3.5 12-1 18 2.4 5.9 7 10.4 11.9 13.3 10.2 5.9 21.4 7.3 32.2 6.2 10.8-1 21.3-4.2 30.7-9.6 9.5-5.1 17.9-12.8 23.1-22 1.8-2.6 3.1-5.4 4.2-8.2-1.1 10.4 0 20.9 3.5 30.8 2.8 8.7 7.7 16.7 14.7 23 6.7 6.3 16.1 10.8 25.9 10.7 9.8.2 19.3-4.4 26.3-10.8 6.6-6.5 11.5-14.6 14.3-23.1 3-9.2 4.5-19.2 3.9-27.1 6.2 11.5 17.2 21.9 27.3 27.3 9.5 5.1 20 7.9 30.8 8.9 10.9.8 22.1-.6 31.9-6.9 4.9-3.1 9.4-7.7 11.2-13.7 2.1-6.2.7-12.5-1.7-17.7-2.1-4.6-4.9-8.8-7.7-12.6 6.6 1 13.6 1.3 20.3.7 5.9-.4 11.9-1.5 17.5-3.3 5.6-2.1 11.2-4.9 15.4-10.2 2.1-2.7 3.5-6.2 3.2-9.8 0-3.7-1.7-7.2-3.9-9.5" fill="#f8f8f8"/><path d="M132.1 345.282c-4.9-1.882-9.8-4.382-12.6-8.197-1.4-1.785-2.1-3.885-2.1-5.973 0-2.112.7-3.812 2.4-5.738 3.2-3.774 8.1-6.174 13-8.549 10.1-4.625 21-7.425 32.2-10.177 11.2-2.848 21.3-8.448 31.8-11.394.8-.2 1.4-.2 1.8-.4.3.2.3.6.7 1 2.8 5.2 4.5 10.4 3.5 15.8-1.1 5.2-4.6 9.7-8.7 13.9v.1c-1.4 1.6-3.2 3.3-4.9 4.9-3.9 3.4-7.8 7.3-11.6 10.8-2.4 2.3-4.5 5.1-7 7.6-7.7.6-15 .6-22.8-.1-5.2-.554-10.8-1.654-15.7-3.572m309.8 36.2c-1.1 3.518-4.3 7.018-8.1 9.517-9.8 4.901-16.8 6.201-27.3 6.105-7.9-.804-19.2-3.004-28.4-6.999-13.2-6.205-24.5-17.005-31.1-30.442-2.4-9.5-2.6-9.1-5.5-16.1 1.5 7.8 3.1 19.6 2.8 25.1-.9 8.6-2.4 16.5-5.6 24.3-3.5 7.6-8 14.6-14 19.7-6 5.4-13.3 8.5-21 8.5-7.7 0-15-3.1-21-8.3-6.1-4.763-10.9-11.763-14.1-19.449-3.5-7.714-5.2-15.814-6.3-24.318-.4-4.7 0-9.6.3-14.3v-.1c.4-3.7 1.8-7.7 1.8-11.2v-.6c0 .1 0 .1 0 0 0 .1 0 .1 0 0 0 .1 0 .1 0 0-1 3.8-1.9 8-3.5 11.4-2.1 5.8-4.9 11.5-8.7 16.5-6 8.3-14 14.6-22.8 18.8-8.7 4.5-18.6 7-28.3 7.6-9.8.4-20-.6-28-5.5-3.9-2.5-7-5.6-8.4-9.4-1.4-3.6-1.1-8.2.6-12.3 2.5-6.4 7-12.3 11.6-17.9 2-2 3.7-4.3 5.6-6.3 5.5-6.8 14.1-16.8 20.3-23.5 2.8-3.2 4.9-6.8 7.7-9.8 3.9-4.7 9.8-9.3 14.7-10.2-2.6.5-5.5.4-7.8 1.6-3.8 1.8-6 4.2-9 6.8.7-5.796-1.4-11.796-3.5-16.639-2.8-5.657-6.4-11.757-9.1-17.005-2.8-5.452-4.9-10.652-6.3-16.39-1.7-5.462-2.4-11.462-2.4-17.239.3-5.723.7-11.723 1.3-17.753 1.8-11.87 4.9-23.37 9.5-34.406 9.1-22.164 22.4-42.464 40.3-58.411 17.4-15.953 39.9-26.853 63.3-26.498 25.7 1.2 45.8 11.2 63.7 26.5 17.9 15.9 31.5 36.2 40.6 58.4 4.6 11 6.5 20.8 9.5 34.7 1.8 12.2 1.8 24.5-.7 35.6-3.6 12.9-8.9 22.3-12.3 34.2-2.1 5.2-2.8 11.5-1.7 17.4-1.8-1.7-3.5-3.4-5.3-5-4.5-3.3-8.8-6-14.4-6.1 5 1 9.7 4.2 13 7.6 1.7 1.9 3 3.7 4.2 5.4 5 6.6 9.6 13.1 15.1 18.7 4.2 5 8.5 8.7 12 13.3 6 6.4 12.4 14.6 15.4 22 2 5.8 2.8 8.5 1.4 12.3m33.6-36.2c-4.9 1.9-10.5 3-15.7 3.6-8.3 1.2-16.3.8-24.3.1-2.5-2.8-5-5.5-7.4-8.1-8.2-8.5-19.1-15.7-22.8-27-1.7-5.4-1-11 .7-16.7.4-1 .8-1.7 1.1-2.6 1.1.2 2.1.6 3.5.8 10.5 2.9 20.7 8.5 31.9 11.4 11.2 2.8 22.1 5.6 32.2 10.2 4.9 2.4 9.8 4.8 12.9 8.5 1.8 1.9 2.4 3.6 2.4 5.7s-1 4.2-2.1 6c-2.8 3.8-7.7 6.3-12.6 8.2m16.8-23.8c-4.5-4.655-10.1-7.155-15.3-9.557-10.9-4.298-22.5-6.698-33.3-8.715-10.8-2.183-21.3-7.083-32.5-9.923-1.1-.36-2.2-.36-3.2-.665 3.5-9.795 8.4-19.595 10.5-30.09 2.8-12.205 2.8-24.805 1-37.129-1.3-12.176-4.5-24.476-9-35.911-8.8-23.165-22.5-44.565-40.6-61.725-18.2-17.14-42.4-29.04-68.3-29.308-24.8-.132-51.6 13.868-68.6 28.648-18.6 16.72-32.6 38.12-41.6 61.495-4.6 11.625-7.7 23.825-9.5 36.137-1 6.288-1.4 12.588-1.4 18.73 0 6.5 1 12.8 2.8 18.9 3.1 11.3 9.5 21.1 14.7 30.6-.7-.1-1.1.3-1.4.3-11.2 2.858-21.7 7.758-32.6 9.941-10.8 2.017-22.3 4.417-33.2 8.715-5.3 2.402-10.9 4.902-15.4 9.59-2.1 2.3-3.8 5.8-4.2 9.5 0 3.6 1.4 7.1 3.5 9.8 4.2 5.4 9.8 8.2 15.4 10.2 5.6 1.8 11.6 2.8 17.5 3.3 6.3.3 12.6.3 19.3-.5-3.2 4-6.3 8.2-8.4 13.3-2.4 5.3-3.5 12-1 18 2.4 5.9 7 10.4 11.9 13.3 10.2 5.9 21.4 7.3 32.2 6.2 10.8-1 21.3-4.2 30.7-9.6 9.5-5.1 17.9-12.8 23.1-22 1.8-2.6 3.1-5.4 4.2-8.2-1.1 10.4 0 20.9 3.5 30.8 2.8 8.7 7.7 16.7 14.7 23 6.7 6.3 16.1 10.8 25.9 10.7 9.8.2 19.3-4.4 26.3-10.8 6.6-6.5 11.5-14.6 14.3-23.1 3-9.2 4.5-19.2 3.9-27.1 6.2 11.5 17.2 21.9 27.3 27.3 9.5 5.1 20 7.9 30.8 8.9 10.9.8 22.1-.6 31.9-6.9 4.9-3.1 9.4-7.7 11.2-13.7 2.1-6.2.7-12.5-1.7-17.7-2.1-4.6-4.9-8.8-7.7-12.6 6.6 1 13.6 1.3 20.3.7 5.9-.4 11.9-1.5 17.5-3.3 5.6-2.1 11.2-4.9 15.4-10.2 2.1-2.7 3.5-6.2 3.2-9.8 0-3.7-1.7-7.2-3.9-9.5" fill="#3878c8"/><g fill="#48a8e8"><path d="M232.9 168c2.9 1.6 6.5.5 8.8-1.6 3.9-3.3 6.4-8.7 5.1-13.8-.5-2.2-2.3-4.1-4.6-4.4-3.8-.6-7.4 1.9-9.5 4.9-2.3 3.4-3.8 7.7-2.4 11.7.5 1.3 1.4 2.5 2.6 3.2ZM260.2 157.8c1.2-2.1 1.8-5 .1-7-1.4-1.5-3.8-.8-5.3.3-2.5 1.8-4.1 5.2-3 8.2.7 1.8 2.8 2.6 4.6 1.9 1.6-.6 2.8-1.8 3.5-3.3l.1-.1ZM247.3 173.6c1.9.8 3.9-.6 4.6-2.4 1.1-1.5 1.1-4.1-.8-5-1.8-.5-3.6.9-4.4 2.5-1 1.4-1.2 4 .5 4.9h.1Z"/></g></g><g vectornator:layerName="g860" fill="#3878c8" fill-rule="evenodd"><path d="M259.9 311.669c-1.5-1.869-3.5-3.269-5.3-4.526-2.4-1.543-5.3-2.643-8.4-3.421-2.8-.622-5.6-.922-8.8-.582 0-.04 8.1 3.46 8.1 3.495 2.4 1.365 4.9 2.465 7 3.852.7.313 1.1.613 1.8 1.138 1.3 1.275 3.1 2.275 4.1 3.808 2.2 1.967 3.2 4.167 4.6 6.936.4-2.769-.4-5.969-1.7-8.764-.7-.705-1.1-1.405-1.4-1.936M320.8 325.568c-2.5-1.768-4.9-3.168-7.7-4.399-2.8-.869-5.7-1.569-8.8-1.765-3.2.1-6.3.5-9.1 1.8-2.8 1.5-5.2 3.6-6.3 6.2 0-.1 0-.1 0 0 0-.1 0-.1 0 0 0-.1 0-.1 0 0 2.5-1.5 4.9-2.6 7.4-3.3 2.8-.7 5.3-.7 8.1-.7 2.4 0 5.3.4 8 .8l8.4 1.4c0-.1 0-.1 0 0 0-.1 0-.1 0 0 0-.1 0-.1 0 0M363.1 303.7c-2.8.8-5.6 1.8-8.4 3.4-2.1 1.6-3.8 3.3-5.6 5.2-.4.5-.7.9-.7 1.2-1.7 2.8-2.5 5.9-2.1 8.8 1.4-2.8 2.8-4.9 4.5-6.9 1-1.1 2.1-2.2 3.5-3 .7-.6 1.8-1.3 2.5-1.9 2.4-1.4 4.9-2.5 7.3-3.9l7.7-3.5c-2.8-.4-6 0-8.7.6"/></g><g vectornator:layerName="eyes" fill-rule="evenodd"><path d="M233 235.5c0 8.8 7.4 15.8 15.8 15.7 0 .1 0 .1 0 0 8.8.1 15.8-6.9 15.8-15.7 0-8.7-7-15.7-15.7-15.7-8.4 0-15.7 7-15.7 15.7M361 235.5c0 8.8 7.4 15.8 15.8 15.7 0 .1 0 .1 0 0 8.8.1 15.8-6.9 15.8-15.7 0-8.7-7-15.7-15.7-15.7-8.4 0-15.7 7-15.7 15.7" fill="#080808"/><path d="M259 232c-.4 2.9-2.9 5.3-5.7 5.2-2.8.1-5.2-2.3-5.2-5.2 0-2.8 2.4-5.2 5.2-5.2 2.8 0 5.3 2.4 5.3 5.2M387 232c-.4 2.9-2.9 5.3-5.7 5.2-2.8.1-5.2-2.3-5.2-5.2 0-2.8 2.4-5.2 5.2-5.2 2.8 0 5.3 2.4 5.3 5.2" fill="#f8f8f8"/></g></svg>