<svg width="175" height="36" viewBox="0 0 175 36" fill="none" xmlns="http://www.w3.org/2000/svg">
<path d="M60.1453 15.2197H63.7651C63.6539 14.2355 63.3842 13.3624 62.9554 12.6004C62.5266 11.8384 61.9791 11.2034 61.3123 10.6954C60.6616 10.1715 59.9153 9.77466 59.0739 9.50482C58.2485 9.23493 57.3673 9.10001 56.4308 9.10001C55.1289 9.10001 53.9543 9.33019 52.9066 9.79056C51.8748 10.2509 51.0016 10.8859 50.2873 11.6955C49.5729 12.5051 49.0252 13.4576 48.6443 14.5529C48.2633 15.6324 48.0728 16.8072 48.0728 18.0772C48.0728 19.3154 48.2633 20.4742 48.6443 21.5537C49.0252 22.6173 49.5729 23.546 50.2873 24.3397C51.0016 25.1334 51.8748 25.7605 52.9066 26.2209C53.9543 26.6654 55.1289 26.8876 56.4308 26.8876C57.4786 26.8876 58.4387 26.7289 59.3119 26.4114C60.185 26.0939 60.9469 25.6335 61.5982 25.0303C62.2488 24.427 62.7727 23.6968 63.1698 22.8395C63.5663 21.9823 63.8124 21.0219 63.9081 19.9583H60.2882C60.1453 21.1013 59.7487 22.022 59.098 22.7205C58.4629 23.419 57.5737 23.7682 56.4308 23.7682C55.5894 23.7682 54.8753 23.6095 54.2875 23.292C53.7003 22.9586 53.2241 22.5221 52.859 21.9823C52.4939 21.4426 52.224 20.8393 52.0494 20.1726C51.8906 19.49 51.8113 18.7915 51.8113 18.0772C51.8113 17.3311 51.8906 16.6087 52.0494 15.9102C52.224 15.2117 52.4939 14.5926 52.859 14.0529C53.2241 13.4973 53.7003 13.0608 54.2875 12.7433C54.8753 12.4099 55.5894 12.2432 56.4308 12.2432C56.8913 12.2432 57.3276 12.3225 57.7402 12.4813C58.169 12.6242 58.55 12.8306 58.8836 13.1004C59.2168 13.3703 59.4946 13.6878 59.717 14.0529C59.9389 14.4022 60.0819 14.7911 60.1453 15.2197Z" fill="#4445E7"/>
<path d="M65.6275 9.50482V26.5067H69.0088V20.0536C69.0088 18.7994 69.2151 17.9025 69.6278 17.3628C70.0404 16.8072 70.7072 16.5294 71.6282 16.5294C72.4374 16.5294 73.001 16.7834 73.3186 17.2914C73.6361 17.7835 73.7946 18.5375 73.7946 19.5535V26.5067H77.1759V18.9344C77.1759 18.1724 77.1045 17.4818 76.9621 16.8627C76.8347 16.2277 76.6048 15.696 76.2711 15.2673C75.938 14.8228 75.4775 14.4815 74.8902 14.2434C74.3185 13.9894 73.5808 13.8624 72.6759 13.8624C72.0408 13.8624 71.3896 14.0291 70.7233 14.3625C70.0565 14.68 69.5085 15.1959 69.0802 15.9102H69.0088V9.50482H65.6275Z" fill="#4445E7"/>
<path d="M79.1232 17.9819C79.171 17.1882 79.3693 16.5294 79.7185 16.0055C80.0678 15.4816 80.5127 15.061 81.0521 14.7435C81.5921 14.426 82.195 14.2037 82.8618 14.0767C83.5447 13.9338 84.2271 13.8624 84.9095 13.8624C85.529 13.8624 86.1561 13.91 86.7906 14.0053C87.4257 14.0847 88.0055 14.2513 88.5294 14.5053C89.0533 14.7593 89.4815 15.1165 89.8152 15.5769C90.1483 16.0214 90.3149 16.6166 90.3149 17.3628V23.7682C90.3149 24.3239 90.3466 24.8556 90.4105 25.3636C90.4739 25.8717 90.5851 26.2526 90.7436 26.5066H87.3145C87.2511 26.3161 87.1958 26.1256 87.1479 25.9352C87.1162 25.7288 87.0926 25.5224 87.0765 25.316C86.537 25.8717 85.9019 26.2606 85.1717 26.4828C84.4415 26.7051 83.6952 26.8162 82.9333 26.8162C82.346 26.8162 81.7984 26.7447 81.2901 26.6019C80.7824 26.459 80.338 26.2368 79.9565 25.9352C79.5756 25.6335 79.2741 25.2525 79.0517 24.7921C78.8454 24.3318 78.7422 23.7841 78.7422 23.1491C78.7422 22.4506 78.8615 21.8791 79.0995 21.4346C79.3537 20.9743 79.6712 20.6091 80.0522 20.3393C80.4487 20.0694 80.8936 19.871 81.3853 19.744C81.8935 19.6011 82.4013 19.49 82.9096 19.4106C83.4174 19.3313 83.9176 19.2677 84.4098 19.2201C84.902 19.1725 85.3383 19.1011 85.7192 19.0058C86.1002 18.9106 86.4021 18.7756 86.6241 18.601C86.8465 18.4105 86.9497 18.1406 86.9336 17.7914C86.9336 17.4263 86.8701 17.1405 86.7433 16.9341C86.6321 16.7119 86.4736 16.5452 86.2667 16.4341C86.0765 16.3071 85.8466 16.2277 85.5763 16.196C85.3227 16.1484 85.0449 16.1246 84.7429 16.1246C84.0761 16.1246 83.5522 16.2674 83.1713 16.5532C82.7903 16.8389 82.5684 17.3152 82.5045 17.9819H79.1232ZM86.9336 20.4822C86.7906 20.6091 86.6085 20.7124 86.386 20.7917C86.1797 20.8552 85.9497 20.9108 85.6956 20.9584C85.4576 21.006 85.2034 21.0457 84.9337 21.0775C84.6634 21.1092 84.3937 21.1489 84.1239 21.1965C83.8698 21.2441 83.6162 21.3077 83.362 21.387C83.124 21.4664 82.9096 21.5775 82.7189 21.7204C82.5442 21.8474 82.4013 22.0141 82.2906 22.2204C82.1794 22.4268 82.1235 22.6888 82.1235 23.0063C82.1235 23.3079 82.1794 23.5618 82.2906 23.7682C82.4013 23.9746 82.5523 24.1413 82.743 24.2683C82.9333 24.3794 83.1557 24.4588 83.4093 24.5064C83.6635 24.5541 83.9257 24.5779 84.1954 24.5779C84.8622 24.5779 85.378 24.4667 85.7429 24.2445C86.1082 24.0222 86.378 23.7603 86.5526 23.4587C86.7272 23.1412 86.8304 22.8237 86.8621 22.5062C86.9099 22.1887 86.9336 21.9347 86.9336 21.7442V20.4822Z" fill="#4445E7"/>
<path d="M95.94 12.2908V9.50482H92.5587V12.2908H95.94ZM92.5587 14.1958V26.5067H95.94V14.1958H92.5587Z" fill="#444CE4"/>
<path d="M98.1263 14.1958V26.5066H101.508V20.0536C101.508 18.7994 101.714 17.9025 102.127 17.3628C102.539 16.8072 103.206 16.5294 104.127 16.5294C104.936 16.5294 105.5 16.7834 105.817 17.2913C106.135 17.7835 106.293 18.5375 106.293 19.5535V26.5066H109.675V18.9344C109.675 18.1724 109.603 17.4818 109.461 16.8627C109.334 16.2277 109.104 15.696 108.77 15.2673C108.437 14.8228 107.976 14.4815 107.389 14.2434C106.817 13.9894 106.08 13.8624 105.175 13.8624C104.46 13.8624 103.762 14.0291 103.079 14.3625C102.396 14.6799 101.841 15.1959 101.412 15.9102H101.341V14.1958H98.1263Z" fill="#4445E7"/>
<path d="M117.504 23.6016C116.98 23.6016 116.543 23.4904 116.194 23.2682C115.845 23.0459 115.559 22.7602 115.337 22.4109C115.131 22.0617 114.98 21.6728 114.885 21.2441C114.805 20.7997 114.765 20.3552 114.765 19.9107C114.765 19.4503 114.813 19.0138 114.908 18.601C115.019 18.1724 115.186 17.7993 115.408 17.4818C115.647 17.1485 115.932 16.8865 116.265 16.6961C116.615 16.5055 117.027 16.4103 117.504 16.4103C118.06 16.4103 118.52 16.5135 118.885 16.7199C119.25 16.9262 119.544 17.204 119.766 17.5533C119.988 17.9025 120.147 18.3074 120.242 18.7677C120.337 19.2122 120.385 19.6884 120.385 20.1964C120.385 20.6409 120.322 21.0695 120.194 21.4823C120.084 21.8791 119.909 22.2363 119.67 22.5538C119.432 22.8713 119.131 23.1253 118.766 23.3158C118.401 23.5063 117.98 23.6016 117.504 23.6016ZM123.6 25.7208V14.1958H120.385V15.8388H120.337C119.925 15.1245 119.409 14.6164 118.79 14.3148C118.186 14.0132 117.48 13.8624 116.671 13.8624C115.813 13.8624 115.051 14.0291 114.384 14.3625C113.734 14.6958 113.186 15.1483 112.741 15.7198C112.297 16.2753 111.956 16.9262 111.718 17.6724C111.495 18.4026 111.384 19.1646 111.384 19.9583C111.384 20.7997 111.479 21.6014 111.67 22.3633C111.876 23.1094 112.194 23.7682 112.623 24.3397C113.051 24.8954 113.599 25.3398 114.266 25.6732C114.932 25.9907 115.726 26.1494 116.646 26.1494C117.393 26.1494 118.099 25.9986 118.766 25.697C119.449 25.3795 119.972 24.8954 120.337 24.2445H120.385V25.8637C120.401 26.7368 120.187 27.4591 119.742 28.0306C119.314 28.6021 118.623 28.8879 117.671 28.8879C117.067 28.8879 116.535 28.7608 116.075 28.5069C115.615 28.2687 115.305 27.8321 115.146 27.1972H111.789C111.836 27.8957 112.027 28.4909 112.36 28.9831C112.71 29.4911 113.138 29.9038 113.646 30.2213C114.17 30.5388 114.742 30.769 115.361 30.9119C115.996 31.0706 116.615 31.15 117.218 31.15C118.631 31.15 119.758 30.9595 120.599 30.5785C121.441 30.1975 122.084 29.7292 122.528 29.1736C122.973 28.6338 123.259 28.0465 123.385 27.4115C123.528 26.7765 123.6 26.213 123.6 25.7208Z" fill="#4445E7"/>
<path d="M137.395 26.5066V14.1958H134.013V20.6488C134.013 21.9029 133.807 22.8078 133.395 23.3634C132.981 23.9031 132.315 24.173 131.394 24.173C130.584 24.173 130.021 23.927 129.703 23.4349C129.386 22.9268 129.227 22.1649 129.227 21.1489V14.1958H125.846V21.768C125.846 22.53 125.909 23.2285 126.037 23.8635C126.179 24.4826 126.417 25.0144 126.751 25.4589C127.084 25.8875 127.537 26.2209 128.108 26.459C128.695 26.6971 129.441 26.8162 130.346 26.8162C131.061 26.8162 131.759 26.6574 132.442 26.3399C133.124 26.0224 133.68 25.5065 134.109 24.7921H134.18V26.5066H137.395Z" fill="#4445E7"/>
<path d="M139.342 17.9819C139.389 17.1882 139.588 16.5294 139.937 16.0055C140.287 15.4816 140.731 15.061 141.27 14.7435C141.81 14.426 142.414 14.2037 143.081 14.0767C143.763 13.9338 144.445 13.8624 145.128 13.8624C145.747 13.8624 146.374 13.91 147.009 14.0053C147.645 14.0847 148.224 14.2513 148.748 14.5053C149.272 14.7593 149.7 15.1165 150.033 15.5769C150.367 16.0214 150.534 16.6166 150.534 17.3628V23.7682C150.534 24.3239 150.565 24.8556 150.629 25.3636C150.692 25.8717 150.803 26.2526 150.962 26.5066H147.533C147.47 26.3161 147.414 26.1256 147.367 25.9352C147.335 25.7288 147.311 25.5224 147.295 25.316C146.755 25.8717 146.12 26.2606 145.39 26.4828C144.66 26.7051 143.914 26.8162 143.152 26.8162C142.564 26.8162 142.017 26.7447 141.509 26.6019C141.001 26.459 140.556 26.2368 140.175 25.9352C139.794 25.6335 139.492 25.2525 139.271 24.7921C139.064 24.3318 138.961 23.7841 138.961 23.1491C138.961 22.4506 139.08 21.8791 139.318 21.4346C139.572 20.9743 139.89 20.6091 140.27 20.3393C140.668 20.0694 141.112 19.871 141.604 19.744C142.112 19.6011 142.62 19.49 143.128 19.4106C143.636 19.3313 144.136 19.2677 144.628 19.2201C145.12 19.1725 145.557 19.1011 145.938 19.0058C146.319 18.9106 146.62 18.7756 146.843 18.601C147.065 18.4105 147.168 18.1406 147.152 17.7914C147.152 17.4263 147.089 17.1405 146.962 16.9341C146.85 16.7119 146.692 16.5452 146.486 16.4341C146.295 16.3071 146.065 16.2277 145.795 16.196C145.541 16.1484 145.263 16.1246 144.962 16.1246C144.295 16.1246 143.771 16.2674 143.39 16.5532C143.009 16.8389 142.787 17.3152 142.723 17.9819H139.342ZM147.152 20.4822C147.009 20.6091 146.827 20.7124 146.604 20.7917C146.398 20.8552 146.168 20.9108 145.914 20.9584C145.676 21.006 145.422 21.0457 145.152 21.0775C144.882 21.1092 144.613 21.1489 144.342 21.1965C144.089 21.2441 143.834 21.3077 143.58 21.387C143.342 21.4664 143.128 21.5775 142.938 21.7204C142.763 21.8474 142.62 22.0141 142.509 22.2204C142.398 22.4268 142.342 22.6888 142.342 23.0063C142.342 23.3079 142.398 23.5618 142.509 23.7682C142.62 23.9746 142.771 24.1413 142.961 24.2683C143.152 24.3794 143.374 24.4588 143.628 24.5064C143.882 24.5541 144.144 24.5779 144.414 24.5779C145.081 24.5779 145.596 24.4667 145.962 24.2445C146.327 24.0222 146.597 23.7603 146.771 23.4587C146.946 23.1412 147.049 22.8237 147.081 22.5062C147.128 22.1887 147.152 21.9347 147.152 21.7442V20.4822Z" fill="#4445E7"/>
<path d="M152.682 14.1958V26.5066H156.063V20.9584C156.063 20.4028 156.119 19.8868 156.23 19.4106C156.341 18.9344 156.524 18.5216 156.778 18.1724C157.048 17.8073 157.397 17.5215 157.825 17.3151C158.254 17.1088 158.778 17.0056 159.397 17.0056C159.603 17.0056 159.817 17.0215 160.04 17.0532C160.262 17.0691 160.453 17.0929 160.612 17.1247V13.9814C160.341 13.9021 160.095 13.8624 159.873 13.8624C159.445 13.8624 159.032 13.9259 158.635 14.0529C158.238 14.1799 157.865 14.3625 157.516 14.6006C157.166 14.8228 156.857 15.1006 156.587 15.434C156.317 15.7515 156.103 16.1007 155.944 16.4817H155.897V14.1958H152.682Z" fill="#4445E7"/>
<path d="M170.438 20.3155C170.438 20.8235 170.39 21.3156 170.295 21.7918C170.2 22.2681 170.041 22.6967 169.819 23.0777C169.597 23.4428 169.295 23.7365 168.914 23.9587C168.549 24.181 168.088 24.2921 167.533 24.2921C167.009 24.2921 166.556 24.181 166.175 23.9587C165.811 23.7206 165.501 23.419 165.247 23.0539C165.009 22.6729 164.834 22.2443 164.723 21.768C164.612 21.2918 164.557 20.8155 164.557 20.3393C164.557 19.8313 164.604 19.3471 164.699 18.8867C164.81 18.4105 164.977 17.9899 165.199 17.6247C165.437 17.2596 165.747 16.9659 166.128 16.7437C166.509 16.5214 166.977 16.4103 167.533 16.4103C168.088 16.4103 168.549 16.5214 168.914 16.7437C169.279 16.9659 169.573 17.2596 169.795 17.6247C170.033 17.974 170.2 18.3867 170.295 18.8629C170.39 19.3233 170.438 19.8075 170.438 20.3155ZM170.486 24.935V26.5067H173.7V9.50482H170.319V15.696H170.271C169.89 15.0927 169.367 14.6402 168.7 14.3387C168.049 14.0212 167.358 13.8624 166.628 13.8624C165.723 13.8624 164.929 14.045 164.247 14.4101C163.564 14.7593 162.992 15.2276 162.532 15.815C162.088 16.4024 161.746 17.085 161.508 17.8628C161.286 18.6248 161.175 19.4186 161.175 20.2441C161.175 21.1013 161.286 21.9268 161.508 22.7205C161.746 23.5142 162.088 24.2207 162.532 24.8398C162.992 25.443 163.572 25.9272 164.271 26.2923C164.969 26.6416 165.779 26.8162 166.699 26.8162C167.509 26.8162 168.231 26.6733 168.866 26.3876C169.517 26.0859 170.041 25.6018 170.438 24.935H170.486Z" fill="#4445E7"/>
<path d="M41.6106 24.7012C41.3867 22.4065 38.7946 21.6416 35.5139 20.6799C34.7469 20.4549 33.9576 20.2243 33.1906 19.9657C33.8232 18.5877 34.4558 16.653 34.008 13.8241C33.101 8.08184 28.4039 0 20.8125 0C13.221 0 8.52399 8.08184 7.61701 13.8241C7.16916 16.653 7.80179 18.5877 8.43442 19.9657C7.66741 20.2243 6.87804 20.4549 6.11108 20.6799C2.83039 21.6416 0.238325 22.4009 0.0143889 24.7012C-0.0695875 25.5447 0.215932 26.3546 0.820558 26.9845C1.66032 27.8563 3.1439 28.3962 5.2433 28.5818C5.08095 29.0486 5.01377 29.4873 5.04736 29.9147C5.17053 31.6019 6.61492 33.5704 10.2819 33.5704C12.2189 33.5704 14.2176 32.8618 15.7851 31.6188C16.5745 33.7672 18.2876 36 20.8181 36C23.3486 36 25.0673 33.7616 25.8511 31.6188C27.4186 32.8618 29.4116 33.5704 31.3543 33.5704C35.0269 33.5704 36.4656 31.6019 36.5888 29.9147C36.6224 29.4873 36.5552 29.0542 36.3929 28.5818C38.4923 28.3962 39.9814 27.8563 40.8156 26.9845C41.409 26.3546 41.6946 25.5447 41.6106 24.7012Z" fill="white"/>
<path d="M39.9199 24.8698C39.7464 23.087 34.523 22.5076 30.8113 20.8992C31.6231 19.285 32.8547 17.4572 32.3229 14.094C31.6119 9.6228 27.749 1.70966 20.8069 1.70966C13.8649 1.70966 10.002 9.61716 9.29101 14.094C8.75918 17.4572 9.99639 19.285 10.8026 20.8992C7.09641 22.5076 1.87311 23.0926 1.69396 24.8698C1.53161 26.5177 4.7059 27.1194 8.28328 26.9057C7.38193 28.0024 6.67655 29.0429 6.73254 29.7909C6.82211 31.0451 8.16013 31.8606 10.2707 31.8606C12.6333 31.8606 16.2834 30.3702 17.1512 26.3433C17.1512 26.3433 16.7929 27.9574 16.9888 29.504C17.224 31.3487 18.6124 34.2846 20.8069 34.2846C23.0015 34.2846 24.3899 31.3487 24.6251 29.504C24.821 27.9574 24.4627 26.3433 24.4627 26.3433C25.3305 30.3702 28.975 31.8606 31.3432 31.8606C33.4538 31.8606 34.7918 31.0451 34.8814 29.7909C34.9374 29.0429 34.2263 27.9968 33.3306 26.9057C36.908 27.1194 40.0823 26.5177 39.9199 24.8698ZM13.5346 8.39676C13.1203 8.0424 13.2323 7.27754 13.7809 6.68703C14.3296 6.09647 15.1133 5.89965 15.5277 6.25396C15.9419 6.60826 15.83 7.37313 15.2813 7.96369C14.7327 8.5542 13.9489 8.74543 13.5346 8.39676ZM17.3135 18.5877C15.606 18.5877 14.2232 17.1985 14.2232 15.4831C14.2232 13.7677 15.606 12.3786 17.3135 12.3786C19.0211 12.3786 20.4038 13.7677 20.4038 15.4831C20.4038 17.1929 19.0211 18.5877 17.3135 18.5877ZM19.2002 6.36083C17.9966 6.90072 16.7145 6.71513 16.3338 5.95027C15.9531 5.17974 16.6193 4.12241 17.823 3.58249C19.0266 3.04257 20.3087 3.22817 20.6894 3.99305C21.07 4.75793 20.4038 5.82088 19.2002 6.36083ZM27.5138 18.5877C25.8063 18.5877 24.4235 17.1985 24.4235 15.4831C24.4235 13.7677 25.8063 12.3786 27.5138 12.3786C29.2214 12.3786 30.6041 13.7677 30.6041 15.4831C30.6041 17.1929 29.2214 18.5877 27.5138 18.5877ZM27.7658 15.4606L28.9023 14.1165C28.5496 13.7509 28.0569 13.526 27.5138 13.526C26.4389 13.526 25.5712 14.3977 25.5712 15.4775C25.5712 16.5573 26.4389 17.4291 27.5138 17.4291C28.5887 17.4291 29.4565 16.5573 29.4565 15.4775C29.4565 15.4719 29.4565 15.4662 29.4565 15.4606H27.7658ZM19.2506 15.4606C19.2506 15.4662 19.2506 15.4719 19.2506 15.4775C19.2506 16.5573 18.3828 17.4291 17.3079 17.4291C16.233 17.4291 15.3653 16.5573 15.3653 15.4775C15.3653 14.3977 16.233 13.526 17.3079 13.526C17.851 13.526 18.3436 13.7509 18.6964 14.1165L17.5599 15.4606H19.2506Z" fill="#4445E7"/>
</svg>
