<svg stroke-miterlimit="10" style="fill-rule:nonzero;clip-rule:evenodd;stroke-linecap:round;stroke-linejoin:round" viewBox="0 0 22 22" xml:space="preserve" xmlns="http://www.w3.org/2000/svg" xmlns:vectornator="http://vectornator.io"><path d="M11 .5C5.052.5.234 5.318.234 11.266c0 4.763 3.082 8.787 7.361 10.213.539.095.74-.228.74-.51 0-.257-.013-1.104-.013-2.006-2.705.498-3.405-.66-3.62-1.265-.121-.31-.646-1.265-1.103-1.52-.377-.203-.915-.7-.014-.714.848-.013 1.454.78 1.655 1.104.97 1.628 2.517 1.17 3.136.888.094-.7.377-1.171.686-1.44-2.395-.27-4.898-1.198-4.898-5.316 0-1.17.417-2.14 1.103-2.893-.107-.269-.484-1.372.108-2.853 0 0 .902-.282 2.96 1.104a9.99 9.99 0 0 1 2.692-.364c.915 0 1.83.122 2.691.364 2.06-1.4 2.96-1.104 2.96-1.104.593 1.48.216 2.584.108 2.853.687.754 1.104 1.71 1.104 2.893 0 4.132-2.517 5.047-4.912 5.316.39.336.727.982.727 1.992 0 1.44-.014 2.597-.014 2.96 0 .283.202.62.74.511a10.783 10.783 0 0 0 7.335-10.213C21.766 5.318 16.948.5 11 .5Z" fill="#343434" fill-rule="evenodd" vectornator:layerName="Untitled"/></svg>