<svg version="1.1" id="Layer_1" x="0" y="0" viewBox="-237 286.5 123.62 40.018" xml:space="preserve" width="124" height="40" xmlns="http://www.w3.org/2000/svg"><defs id="defs366"><marker style="overflow:visible" id="Arrow1Lstart" refX="0" refY="0" orient="auto"><path transform="matrix(.8 0 0 .8 10 0)" style="fill:context-stroke;fill-rule:evenodd;stroke:context-stroke;stroke-width:1pt" d="m0 0 5-5-17.5 5L5 5Z" id="path2511"/></marker></defs><style type="text/css" id="style273">.st3{display:inline;fill:#444}</style><rect style="fill:#444;fill-opacity:1;stroke-width:1.42306;stroke-miterlimit:4;stroke-dasharray:none" id="rect3579" width="123.62" height="40.018" x="-237" y="286.5" ry="12.764"/><g id="g1718" transform="translate(15.571 11.194)" style="fill:#ffead7;fill-opacity:1"><g id="Rekor-1" style="fill:#ffead7;fill-opacity:1"><g id="g1640" style="fill:#ffead7;fill-opacity:1"><path class="st3" d="M-202.2 290.6c-1.2 0-2.2.5-2.8 1.4v-.1c0-.7-.5-1.2-1.2-1.2s-1.2.5-1.2 1.2v8.7c0 .7.5 1.2 1.2 1.2s1.2-.5 1.2-1.2v-4.7c0-1.9.9-3 2-3 .5 0 1 .3 1.2.6.2.3.6.5 1 .5.8 0 1.2-.5 1.2-1.3 0-.5-.2-1-.6-1.4-.4-.4-1.1-.7-2-.7z" id="path1624" style="fill:#ffead7;fill-opacity:1"/><path class="st3" d="M-186.5 295.7c0-2.9-2-5-5.2-5s-5.4 2.3-5.4 5.6c0 3.5 2.3 5.7 5.8 5.7 1.7 0 3.4-.6 4.3-1.9.2-.3.3-.6.3-.9 0-.6-.3-1-.9-1-.4 0-.7.2-1.1.5-.6.8-1.4 1.1-2.5 1.1-1.9 0-3.3-1.1-3.4-2.7h7c.6-.1 1.1-.5 1.1-1.4zm-8.3-.6c.2-1.6 1.3-2.5 2.9-2.5 1.7 0 2.8.9 2.9 2.5z" id="path1626" style="fill:#ffead7;fill-opacity:1"/><path class="st3" d="m-176.4 295.4 3-2.6c.5-.4.6-.8.6-1.1 0-.6-.5-1-1.1-1-.4 0-.8.1-1.4.7l-5.2 4.5v-7.3c0-.7-.5-1.2-1.2-1.2s-1.2.5-1.2 1.2v12c0 .7.5 1.2 1.2 1.2s1.2-.5 1.2-1.2v-1.8l2.1-1.8 3.4 4.3c.3.5.8.6 1.1.6.7 0 1.2-.5 1.2-1 0-.3 0-.5-.5-1.1z" id="path1628" style="fill:#ffead7;fill-opacity:1"/><path class="st3" d="M-164 290.6c-3.3 0-5.7 2.3-5.7 5.7 0 3.4 2.4 5.7 5.7 5.7 3.3 0 5.7-2.3 5.7-5.7 0-3.4-2.4-5.7-5.7-5.7zm0 9.2c-1.9 0-3.3-1.4-3.3-3.5s1.4-3.5 3.3-3.5 3.3 1.4 3.3 3.5-1.4 3.5-3.3 3.5z" id="path1630" style="fill:#ffead7;fill-opacity:1"/><path class="st3" d="M-147.2 291.3c-.4-.4-1.1-.7-2-.7-1.2 0-2.2.5-2.8 1.4v-.1c0-.7-.5-1.2-1.2-1.2s-1.2.5-1.2 1.2v8.7c0 .7.5 1.2 1.2 1.2s1.2-.5 1.2-1.2v-4.7c0-1.9.9-3 2-3 .5 0 1 .3 1.2.6.2.3.6.5 1 .5.8 0 1.2-.5 1.2-1.3 0-.5-.2-1-.6-1.4z" id="path1632" style="fill:#ffead7;fill-opacity:1"/><path class="st3" d="M-221.3 302.9h-13.3c-.4 0-.8-.3-.8-.8v-11c.2.1.5.1.8.1h13.3c.5 0 .8-.4.8-.8 0-.5-.4-.8-.8-.8h-2.6v-2.3c0-.5-.4-.8-.8-.8h-9.9c-1.3 0-2.4 1.1-2.4 2.4v13.4c0 1.3 1.1 2.4 2.4 2.4h13.3c.5 0 .8-.4.8-.8 0-.6-.4-1-.8-1zm-13.3-14.9h9.1v1.5h-9.1c-.4 0-.8-.3-.8-.8 0-.3.4-.7.8-.7z" id="path1634" style="fill:#ffead7;fill-opacity:1"/><circle class="st3" cx="-221.9" cy="294.6" r="1.4" id="circle1636" style="fill:#ffead7;fill-opacity:1"/><circle class="st3" cx="-221.9" cy="299.4" r="1.4" id="circle1638" style="fill:#ffead7;fill-opacity:1"/></g></g></g></svg>